<svg width="24" height="24" viewBox="0 0 24 24" fill="none" xmlns="http://www.w3.org/2000/svg">
<path fill-rule="evenodd" clip-rule="evenodd" d="M0 3V21H24V3H0Z" fill="#009933"/>
<mask id="mask0_4_62" style="mask-type:luminance" maskUnits="userSpaceOnUse" x="0" y="3" width="24" height="18">
<path fill-rule="evenodd" clip-rule="evenodd" d="M0 3V21H24V3H0Z" fill="white"/>
</mask>
<g mask="url(#mask0_4_62)">
<g filter="url(#filter0_d_4_62)">
<path fill-rule="evenodd" clip-rule="evenodd" d="M11.9453 5.778L21.0968 12.156L11.82 18.1275L2.85675 12.0322L11.9453 5.778Z" fill="#FFD221"/>
<path fill-rule="evenodd" clip-rule="evenodd" d="M11.9453 5.778L21.0968 12.156L11.82 18.1275L2.85675 12.0322L11.9453 5.778Z" fill="url(#paint0_linear_4_62)"/>
</g>
<path fill-rule="evenodd" clip-rule="evenodd" d="M12 15.9C12.9946 15.9 13.9484 15.5049 14.6517 14.8016C15.3549 14.0984 15.75 13.1446 15.75 12.15C15.75 11.1554 15.3549 10.2016 14.6517 9.49834C13.9484 8.79508 12.9946 8.39999 12 8.39999C11.0054 8.39999 10.0516 8.79508 9.34835 9.49834C8.64509 10.2016 8.25 11.1554 8.25 12.15C8.25 13.1446 8.64509 14.0984 9.34835 14.8016C10.0516 15.5049 11.0054 15.9 12 15.9Z" fill="#2E42A5"/>
<mask id="mask1_4_62" style="mask-type:luminance" maskUnits="userSpaceOnUse" x="8" y="8" width="8" height="8">
<path fill-rule="evenodd" clip-rule="evenodd" d="M12 15.9C12.9946 15.9 13.9484 15.5049 14.6517 14.8016C15.3549 14.0984 15.75 13.1446 15.75 12.15C15.75 11.1554 15.3549 10.2016 14.6517 9.49834C13.9484 8.79508 12.9946 8.39999 12 8.39999C11.0054 8.39999 10.0516 8.79508 9.34835 9.49834C8.64509 10.2016 8.25 11.1554 8.25 12.15C8.25 13.1446 8.64509 14.0984 9.34835 14.8016C10.0516 15.5049 11.0054 15.9 12 15.9Z" fill="white"/>
</mask>
<g mask="url(#mask1_4_62)">
<path fill-rule="evenodd" clip-rule="evenodd" d="M10.785 13.9275L10.6177 14.0152L10.6492 13.8292L10.5142 13.6972L10.7017 13.6695L10.785 13.5L10.869 13.6695L11.0565 13.6972L10.9207 13.8292L10.9522 14.0152L10.785 13.9275ZM12.285 13.9275L12.1177 14.0152L12.1492 13.8292L12.0142 13.6972L12.2017 13.6695L12.285 13.5L12.369 13.6695L12.5565 13.6972L12.4207 13.8292L12.4522 14.0152L12.285 13.9275ZM12.285 14.8275L12.1177 14.9152L12.1492 14.7292L12.0142 14.5965L12.2017 14.5695L12.285 14.4L12.369 14.5695L12.5565 14.5972L12.4207 14.7292L12.4522 14.9152L12.285 14.8275ZM11.535 11.6775L11.3677 11.7652L11.3992 11.5792L11.2642 11.4472L11.4517 11.4195L11.535 11.25L11.619 11.4195L11.8065 11.4472L11.6707 11.5792L11.7022 11.7652L11.535 11.6775ZM11.535 13.1775L11.3677 13.2652L11.3992 13.0792L11.2642 12.9472L11.4517 12.9195L11.535 12.75L11.619 12.9195L11.8065 12.9472L11.6707 13.0792L11.7022 13.2652L11.535 13.1775ZM10.485 12.4275L10.3177 12.5152L10.3492 12.3292L10.2142 12.1972L10.4017 12.1695L10.485 12L10.569 12.1695L10.7565 12.1972L10.6207 12.3292L10.653 12.5152L10.485 12.4275ZM9.435 13.0275L9.26775 13.1152L9.29925 12.9292L9.16425 12.7972L9.35175 12.7695L9.435 12.6L9.519 12.7695L9.7065 12.7972L9.57075 12.9292L9.60225 13.1152L9.435 13.0275ZM12.885 10.4775L12.7177 10.5652L12.7492 10.3792L12.6142 10.2465L12.8017 10.2195L12.885 10.05L12.969 10.2195L13.1565 10.2472L13.0207 10.3792L13.0522 10.5652L12.885 10.4775Z" fill="#F7FCFF"/>
<path d="M7.44374 11.2477L7.55624 9.75224C11.1547 10.0237 13.995 11.2072 16.041 13.311L14.9655 14.3572C13.1925 12.5325 10.6965 11.493 7.44299 11.2477H7.44374Z" fill="#F7FCFF"/>
<path d="M9.2175 10.9522L9.25575 10.5787C11.5755 10.8187 13.5652 11.7075 15.2182 13.2427L14.9632 13.5172C13.3702 12.039 11.457 11.1847 9.2175 10.9522Z" fill="#009933"/>
</g>
</g>
<defs>
<filter id="filter0_d_4_62" x="2.85675" y="5.778" width="18.24" height="12.3495" filterUnits="userSpaceOnUse" color-interpolation-filters="sRGB">
<feFlood flood-opacity="0" result="BackgroundImageFix"/>
<feColorMatrix in="SourceAlpha" type="matrix" values="0 0 0 0 0 0 0 0 0 0 0 0 0 0 0 0 0 0 127 0" result="hardAlpha"/>
<feOffset/>
<feColorMatrix type="matrix" values="0 0 0 0 0.0313726 0 0 0 0 0.368627 0 0 0 0 0 0 0 0 0.28 0"/>
<feBlend mode="normal" in2="BackgroundImageFix" result="effect1_dropShadow_4_62"/>
<feBlend mode="normal" in="SourceGraphic" in2="effect1_dropShadow_4_62" result="shape"/>
</filter>
<linearGradient id="paint0_linear_4_62" x1="24" y1="21" x2="24" y2="3" gradientUnits="userSpaceOnUse">
<stop stop-color="#FFC600"/>
<stop offset="1" stop-color="#FFDE42"/>
</linearGradient>
</defs>
</svg>
