<svg width="24" height="24" viewBox="0 0 24 24" fill="none" xmlns="http://www.w3.org/2000/svg">
<path fill-rule="evenodd" clip-rule="evenodd" d="M0.5 3.375H23.5V20.625H0.5V3.375Z" fill="#F7FCFF"/>
<path fill-rule="evenodd" clip-rule="evenodd" d="M0.5 13.9162V15.3537H23.5V13.9162H0.5ZM0.5 16.5526V17.9901H23.5V16.5526H0.5ZM0.5 8.64631V10.0838H23.5V8.64631H0.5ZM0.5 19.1875V20.625H23.5V19.1875H0.5ZM0.5 11.2812V12.7188H23.5V11.2812H0.5ZM0.5 3.375V4.8125H23.5V3.375H0.5ZM0.5 6.01066V7.44816H23.5V6.01066H0.5Z" fill="#E31D1C"/>
<path d="M0.5 3.375H14.875V12.7188H0.5V3.375Z" fill="#2E42A5"/>
<path fill-rule="evenodd" clip-rule="evenodd" d="M1.73769 5.48741L1.21588 5.85325L1.39197 5.20207L0.928375 4.7895H1.53428L1.73697 4.25835L1.97488 4.79022H2.49094L2.08556 5.20207L2.24225 5.85325L1.73769 5.48741ZM4.61269 5.48741L4.09088 5.85325L4.26697 5.20207L3.80338 4.7895H4.40928L4.61197 4.25835L4.84988 4.79022H5.36594L4.96056 5.20207L5.11725 5.85325L4.61269 5.48741ZM6.96588 5.85325L7.48769 5.48669L7.99225 5.85325L7.83556 5.20207L8.24094 4.7895H7.72488L7.48697 4.25835L7.28428 4.79022H6.67838L7.14197 5.20207L6.96588 5.85325ZM10.3627 5.48669L9.84087 5.85325L10.017 5.20207L9.55338 4.7895H10.1586L10.362 4.25835L10.5999 4.79022H11.1159L10.7106 5.20207L10.8673 5.85325L10.3627 5.48669ZM1.21588 8.72897L1.73769 8.36241L2.24225 8.72897L2.08556 8.07778L2.49094 7.66522H1.97488L1.73697 7.13407L1.53428 7.66594H0.928375L1.39197 8.07778L1.21588 8.72897ZM4.61269 8.36241L4.09088 8.72897L4.26697 8.07778L3.80338 7.66522H4.40928L4.61197 7.13407L4.84988 7.66594H5.36594L4.96056 8.07778L5.11725 8.72897L4.61269 8.36241ZM6.96588 8.72897L7.48769 8.36241L7.99225 8.72897L7.83556 8.07778L8.24094 7.66522H7.72488L7.48697 7.13407L7.28428 7.66594H6.67838L7.14197 8.07778L6.96588 8.72897ZM10.3627 8.36241L9.84087 8.72897L10.017 8.07778L9.55338 7.66522H10.1586L10.362 7.13407L10.5999 7.66594H11.1159L10.7106 8.07778L10.8673 8.72897L10.3627 8.36241ZM1.21588 11.604L1.73769 11.2374L2.24225 11.604L2.08556 10.9528L2.49094 10.5402H1.97488L1.73697 10.0091L1.53428 10.5409H0.928375L1.39197 10.9528L1.21588 11.604ZM4.61269 11.2374L4.09088 11.604L4.26697 10.9528L3.80338 10.5402H4.40928L4.61197 10.0091L4.84988 10.5409H5.36594L4.96056 10.9528L5.11725 11.604L4.61269 11.2374ZM6.96588 11.604L7.48769 11.2374L7.99225 11.604L7.83556 10.9528L8.24094 10.5402H7.72488L7.48697 10.0091L7.28428 10.5409H6.67838L7.14197 10.9528L6.96588 11.604ZM10.3627 11.2374L9.84087 11.604L10.017 10.9528L9.55338 10.5402H10.1586L10.362 10.0091L10.5999 10.5409H11.1159L10.7106 10.9528L10.8673 11.604L10.3627 11.2374ZM12.7159 5.85397L13.2377 5.48741L13.7423 5.85397L13.5856 5.20278L13.9909 4.79022H13.4749L13.237 4.25907L13.0343 4.79094H12.4284L12.892 5.20278L12.7159 5.85397ZM13.2377 8.36241L12.7159 8.72897L12.892 8.07778L12.4284 7.66522H13.0343L13.237 7.13407L13.4749 7.66594H13.9909L13.5856 8.07778L13.7423 8.72897L13.2377 8.36241ZM12.7159 11.604L13.2377 11.2374L13.7423 11.604L13.5856 10.9528L13.9909 10.5402H13.4749L13.237 10.0091L13.0343 10.5409H12.4284L12.892 10.9528L12.7159 11.604ZM3.17519 6.92419L2.65338 7.29075L2.82947 6.63957L2.36588 6.227H2.97178L3.17447 5.69585L3.41238 6.22772H3.92844L3.52306 6.63957L3.67975 7.29075L3.17519 6.92419ZM5.52838 7.29075L6.05019 6.92419L6.55475 7.29075L6.39806 6.63957L6.80344 6.227H6.28738L6.04947 5.69585L5.84678 6.22772H5.24088L5.70447 6.63957L5.52838 7.29075ZM8.92519 6.92419L8.40338 7.29075L8.57947 6.63957L8.11588 6.227H8.72106L8.92447 5.69585L9.16238 6.22772H9.67844L9.27306 6.63957L9.42975 7.29075L8.92519 6.92419ZM2.65338 10.1658L3.17519 9.79919L3.67975 10.1658L3.52306 9.51457L3.92844 9.102H3.41238L3.17447 8.57085L2.97178 9.10272H2.36588L2.82947 9.51457L2.65338 10.1658ZM6.05019 9.79919L5.52838 10.1658L5.70447 9.51457L5.24088 9.102H5.84678L6.04947 8.57085L6.28738 9.10272H6.80344L6.39806 9.51457L6.55475 10.1658L6.05019 9.79919ZM8.40338 10.1658L8.92519 9.79919L9.42975 10.1658L9.27306 9.51457L9.67844 9.102H9.16238L8.92447 8.57085L8.72106 9.10272H8.11588L8.57947 9.51457L8.40338 10.1658ZM11.8002 6.92419L11.2784 7.29075L11.4545 6.63957L10.9909 6.227H11.5961L11.7995 5.69585L12.0374 6.22772H12.5534L12.1481 6.63957L12.3048 7.29075L11.8002 6.92419ZM11.2784 10.1658L11.8002 9.79919L12.3048 10.1658L12.1481 9.51457L12.5534 9.102H12.0374L11.7995 8.57085L11.5961 9.10272H10.9909L11.4545 9.51457L11.2784 10.1658Z" fill="#F7FCFF"/>
</svg>
