<svg width="24" height="24" viewBox="0 0 24 24" fill="none" xmlns="http://www.w3.org/2000/svg">
<g clip-path="url(#clip0_15_382)">
<path d="M12 0.279999C9.1432 0.279151 6.37981 1.29752 4.20674 3.15199C2.03366 5.00645 0.593471 7.57535 0.145132 10.3968C-0.303206 13.2182 0.269723 16.1069 1.7609 18.5437C3.25207 20.9804 5.56366 22.8052 8.28 23.69H8.56C8.81544 23.7025 9.06594 23.6166 9.26 23.45C9.37675 23.3483 9.46957 23.2221 9.53181 23.0803C9.59404 22.9385 9.62416 22.7848 9.62 22.63V22.42V21.33C9.61196 21.2651 9.591 21.2025 9.55837 21.1458C9.52574 21.0891 9.48209 21.0395 9.43 21C9.37308 20.9545 9.30689 20.9219 9.23607 20.9046C9.16524 20.8873 9.0915 20.8858 9.02 20.9C6.33 21.48 5.76 19.8 5.73 19.69C5.39174 18.7998 4.78775 18.0352 4 17.5L3.85 17.39C3.96808 17.333 4.09935 17.3088 4.23 17.32C4.47923 17.3575 4.71475 17.458 4.91425 17.612C5.11376 17.766 5.27063 17.9684 5.37 18.2C5.75685 18.8736 6.38988 19.3709 7.13591 19.5872C7.88194 19.8036 8.6828 19.7221 9.37 19.36C9.44426 19.327 9.50993 19.2774 9.56195 19.215C9.61397 19.1525 9.65094 19.079 9.67 19C9.71054 18.541 9.90836 18.11 10.23 17.78C10.3042 17.7161 10.3579 17.6317 10.3846 17.5375C10.4112 17.4433 10.4096 17.3433 10.38 17.25C10.3527 17.1565 10.2982 17.0733 10.2234 17.011C10.1485 16.9486 10.0569 16.91 9.96 16.9C7.59 16.63 5.16 15.8 5.16 11.71C5.14274 10.6815 5.52236 9.6859 6.22 8.93C6.28306 8.86095 6.32504 8.77529 6.34098 8.68315C6.35693 8.59101 6.34618 8.49623 6.31 8.41C6.03305 7.62993 6.03658 6.77774 6.32 6C7.24344 6.16502 8.11024 6.56058 8.84 7.15C8.90073 7.19152 8.97019 7.21852 9.04301 7.22892C9.11584 7.23933 9.19008 7.23285 9.26 7.21C10.1538 6.97162 11.0749 6.8506 12 6.85C12.9287 6.84559 13.8537 6.96669 14.75 7.21C14.8183 7.23277 14.8909 7.2392 14.9621 7.22878C15.0333 7.21836 15.1011 7.19138 15.16 7.15C15.8888 6.55909 16.756 6.16334 17.68 6C17.9547 6.76956 17.9547 7.61044 17.68 8.38C17.6438 8.46693 17.634 8.56258 17.6518 8.65504C17.6696 8.7475 17.7142 8.83268 17.78 8.9C18.4668 9.64988 18.8423 10.6332 18.83 11.65C18.83 15.75 16.4 16.57 14.02 16.83C13.9231 16.84 13.8315 16.8786 13.7566 16.941C13.6818 17.0033 13.6273 17.0865 13.6 17.18C13.5712 17.2718 13.57 17.3701 13.5967 17.4626C13.6234 17.5551 13.6767 17.6376 13.75 17.7C13.9712 17.9309 14.1402 18.2067 14.2454 18.5086C14.3507 18.8106 14.3897 19.1316 14.36 19.45V22.63C14.3578 22.7854 14.3898 22.9395 14.4537 23.0812C14.5176 23.2229 14.612 23.3488 14.73 23.45C14.8789 23.5635 15.0527 23.6399 15.2371 23.673C15.4214 23.706 15.6109 23.6947 15.79 23.64C18.4752 22.7262 20.7499 20.8908 22.2106 18.4594C23.6713 16.028 24.2235 13.1578 23.7692 10.358C23.315 7.55815 21.8837 5.00975 19.7292 3.16487C17.5747 1.32 14.8364 0.297933 12 0.279999Z" fill="#A4A4A4"/>
</g>
<defs>
<clipPath id="clip0_15_382">
<rect width="24" height="24" fill="white"/>
</clipPath>
</defs>
</svg>
