<svg width="25" height="23" viewBox="0 0 25 23" fill="none" xmlns="http://www.w3.org/2000/svg">
<path d="M5.91 22.25H1.05V8.32H5.91V22.25ZM16 12.86C15.4324 12.86 14.8881 13.0855 14.4868 13.4868C14.0855 13.8881 13.86 14.4324 13.86 15V22.25H8.75V8.32H13.86V9.91C15.0577 8.89605 16.5709 8.33039 18.14 8.31C21.31 8.31 23.51 10.66 23.51 15.12V22.25H18.14V15C18.1413 14.7181 18.0869 14.4388 17.98 14.178C17.873 13.9172 17.7156 13.6801 17.5168 13.4803C17.3179 13.2805 17.0816 13.122 16.8213 13.0138C16.561 12.9057 16.2819 12.85 16 12.85V12.86ZM6 3.5C6 3.99445 5.85338 4.4778 5.57868 4.88893C5.30397 5.30005 4.91353 5.62048 4.45671 5.8097C3.99989 5.99892 3.49723 6.04843 3.01228 5.95196C2.52732 5.8555 2.08187 5.6174 1.73223 5.26777C1.3826 4.91814 1.1445 4.47268 1.04804 3.98773C0.951575 3.50277 1.00108 3.00011 1.1903 2.54329C1.37952 2.08648 1.69995 1.69603 2.11108 1.42133C2.5222 1.14662 3.00555 1 3.5 1C4.15957 1.00528 4.79033 1.271 5.25485 1.73927C5.71938 2.20754 5.98002 2.84041 5.98 3.5H6Z" stroke="#A4A4A4" stroke-width="1.5" stroke-linecap="round" stroke-linejoin="round"/>
</svg>
