<svg width="24" height="24" viewBox="0 0 24 24" fill="none" xmlns="http://www.w3.org/2000/svg">
<g clip-path="url(#clip0_4_4)">
<rect width="24" height="24" fill="#2E2D2D"/>
<path d="M12 4.64C10.5443 4.64 9.12135 5.07166 7.91101 5.88038C6.70066 6.68911 5.75731 7.83859 5.20025 9.18345C4.64319 10.5283 4.49744 12.0082 4.78142 13.4359C5.06541 14.8636 5.76638 16.175 6.7957 17.2043C7.82501 18.2336 9.13644 18.9346 10.5641 19.2186C11.9918 19.5026 13.4717 19.3568 14.8166 18.7998C16.1614 18.2427 17.3109 17.2993 18.1196 16.089C18.9283 14.8787 19.36 13.4557 19.36 12C19.3574 10.0488 18.5811 8.17831 17.2014 6.79862C15.8217 5.41892 13.9512 4.64265 12 4.64ZM12 17.36C10.9399 17.36 9.90359 17.0456 9.02215 16.4567C8.1407 15.8677 7.45369 15.0306 7.04801 14.0512C6.64232 13.0718 6.53618 11.9941 6.74299 10.9543C6.94981 9.91458 7.4603 8.95952 8.20991 8.20991C8.95952 7.4603 9.91458 6.94981 10.9543 6.74299C11.9941 6.53617 13.0718 6.64232 14.0512 7.04801C15.0306 7.45369 15.8677 8.1407 16.4567 9.02214C17.0456 9.90359 17.36 10.9399 17.36 12C17.3574 13.4207 16.7918 14.7825 15.7872 15.7872C14.7826 16.7918 13.4208 17.3574 12 17.36Z" fill="#A4A4A4"/>
<path d="M12 3.47C12.2652 3.47 12.5196 3.36464 12.7071 3.17711C12.8946 2.98957 13 2.73522 13 2.47V1C13 0.734784 12.8946 0.48043 12.7071 0.292893C12.5196 0.105357 12.2652 0 12 0C11.7348 0 11.4804 0.105357 11.2929 0.292893C11.1054 0.48043 11 0.734784 11 1V2.47C11 2.73522 11.1054 2.98957 11.2929 3.17711C11.4804 3.36464 11.7348 3.47 12 3.47Z" fill="#A4A4A4"/>
<path d="M4.55001 5.99999C4.64345 6.09267 4.75426 6.166 4.8761 6.21576C4.99794 6.26553 5.1284 6.29075 5.26001 6.28999C5.39663 6.2948 5.53278 6.27155 5.66006 6.22167C5.78733 6.17179 5.90303 6.09634 6.00001 5.99999C6.09834 5.90657 6.17665 5.79412 6.23016 5.66949C6.28366 5.54485 6.31126 5.41063 6.31126 5.27499C6.31126 5.13936 6.28366 5.00514 6.23016 4.8805C6.17665 4.75586 6.09834 4.64341 6.00001 4.54999L5.00001 3.54999C4.81701 3.35241 4.56301 3.23561 4.2939 3.22529C4.02478 3.21498 3.76259 3.31199 3.56501 3.49499C3.36742 3.67799 3.25062 3.93199 3.24031 4.2011C3.22999 4.47022 3.32701 4.73241 3.51001 4.92999L4.55001 5.99999Z" fill="#A4A4A4"/>
<path d="M2.47 11H1C0.734784 11 0.48043 11.1054 0.292893 11.2929C0.105357 11.4804 0 11.7348 0 12C0 12.2652 0.105357 12.5196 0.292893 12.7071C0.48043 12.8946 0.734784 13 1 13H2.47C2.73522 13 2.98957 12.8946 3.17711 12.7071C3.36464 12.5196 3.47 12.2652 3.47 12C3.47 11.7348 3.36464 11.4804 3.17711 11.2929C2.98957 11.1054 2.73522 11 2.47 11Z" fill="#A4A4A4"/>
<path d="M4.54999 18L3.54999 19C3.45627 19.093 3.38187 19.2036 3.3311 19.3254C3.28033 19.4473 3.2542 19.578 3.2542 19.71C3.2542 19.842 3.28033 19.9727 3.3311 20.0946C3.38187 20.2164 3.45627 20.327 3.54999 20.42C3.64343 20.5127 3.75425 20.586 3.87609 20.6358C3.99793 20.6855 4.12839 20.7108 4.25999 20.71C4.3916 20.7108 4.52206 20.6855 4.6439 20.6358C4.76574 20.586 4.87655 20.5127 4.96999 20.42L5.96999 19.42C6.06323 19.3268 6.13719 19.2161 6.18765 19.0942C6.23811 18.9724 6.26409 18.8419 6.26409 18.71C6.26409 18.5781 6.23811 18.4476 6.18765 18.3257C6.13719 18.2039 6.06323 18.0932 5.96999 18C5.87676 17.9068 5.76607 17.8328 5.64424 17.7823C5.52242 17.7319 5.39185 17.7059 5.25999 17.7059C5.12814 17.7059 4.99757 17.7319 4.87575 17.7823C4.75392 17.8328 4.64323 17.9068 4.54999 18Z" fill="#A4A4A4"/>
<path d="M12 20.53C11.7348 20.53 11.4804 20.6354 11.2929 20.8229C11.1054 21.0104 11 21.2648 11 21.53V23C11 23.2652 11.1054 23.5196 11.2929 23.7071C11.4804 23.8946 11.7348 24 12 24C12.2652 24 12.5196 23.8946 12.7071 23.7071C12.8946 23.5196 13 23.2652 13 23V21.53C13 21.2648 12.8946 21.0104 12.7071 20.8229C12.5196 20.6354 12.2652 20.53 12 20.53Z" fill="#A4A4A4"/>
<path d="M19.45 18C19.3548 17.9048 19.2418 17.8293 19.1174 17.7777C18.993 17.7262 18.8596 17.6997 18.725 17.6997C18.5904 17.6997 18.457 17.7262 18.3326 17.7777C18.2082 17.8293 18.0952 17.9048 18 18C17.9048 18.0952 17.8293 18.2082 17.7777 18.3326C17.7262 18.457 17.6997 18.5904 17.6997 18.725C17.6997 18.8596 17.7262 18.993 17.7777 19.1174C17.8293 19.2418 17.9048 19.3548 18 19.45L19 20.45C19.0934 20.5427 19.2043 20.616 19.3261 20.6658C19.4479 20.7155 19.5784 20.7408 19.71 20.74C19.8416 20.7408 19.9721 20.7155 20.0939 20.6658C20.2157 20.616 20.3266 20.5427 20.42 20.45C20.5137 20.357 20.5881 20.2464 20.6389 20.1246C20.6897 20.0027 20.7158 19.872 20.7158 19.74C20.7158 19.608 20.6897 19.4773 20.6389 19.3554C20.5881 19.2336 20.5137 19.123 20.42 19.03L19.45 18Z" fill="#A4A4A4"/>
<path d="M23 11H21.53C21.2648 11 21.0104 11.1054 20.8229 11.2929C20.6354 11.4804 20.53 11.7348 20.53 12C20.53 12.2652 20.6354 12.5196 20.8229 12.7071C21.0104 12.8946 21.2648 13 21.53 13H23C23.2652 13 23.5196 12.8946 23.7071 12.7071C23.8946 12.5196 24 12.2652 24 12C24 11.7348 23.8946 11.4804 23.7071 11.2929C23.5196 11.1054 23.2652 11 23 11Z" fill="#A4A4A4"/>
<path d="M18.74 6.26C19.0016 6.26959 19.2565 6.17624 19.45 6L20.45 5C20.5432 4.90676 20.6172 4.79607 20.6677 4.67424C20.7181 4.55242 20.7441 4.42185 20.7441 4.29C20.7441 4.15814 20.7181 4.02757 20.6677 3.90575C20.6172 3.78392 20.5432 3.67323 20.45 3.58C20.3568 3.48676 20.2461 3.4128 20.1243 3.36234C20.0024 3.31188 19.8719 3.2859 19.74 3.2859C19.6081 3.2859 19.4776 3.31188 19.3558 3.36234C19.2339 3.4128 19.1232 3.48676 19.03 3.58L18.03 4.58C17.9343 4.67096 17.8575 4.77999 17.8042 4.90077C17.7508 5.02156 17.7219 5.15172 17.7191 5.28374C17.7163 5.41576 17.7397 5.54703 17.7879 5.66996C17.8361 5.7929 17.9082 5.90507 18 6C18.0995 6.09097 18.2163 6.16089 18.3434 6.20557C18.4706 6.25025 18.6055 6.26877 18.74 6.26Z" fill="#A4A4A4"/>
</g>
<defs>
<clipPath id="clip0_4_4">
<rect width="24" height="24" fill="white"/>
</clipPath>
</defs>
</svg>
